# xmcd CD database file
#
# Track frame offsets:
#	225
#	15382
#	33425
#	56127
#	72960
#	93202
#	111335
#	128417
#	143702
#	164817
#	182675
#	193225
#
# Disc length: 2754 seconds
#
# Revision: 1
# Processed by: cddbd v1.5.2PL0 Copyright (c) Steve Scherf et al.
# Submitted via: CDex 1.51
#
DISCID=a70abf0c
DTITLE=Various Artist - V rytmu country I.
DYEAR=1997
DGENRE=Country
TTITLE0=Ruku svou...
TTITLE1=O mamo
TTITLE2=Montgomery
TTITLE3=Cernovlasko
TTITLE4=Mississippi
TTITLE5=Svicka
TTITLE6=Pulnocni kovboj
TTITLE7=Cesty
TTITLE8=Co se bude dit
TTITLE9=Baby
TTITLE10=Vzpominam
TTITLE11=Ved me dal, cesto ma
EXTD=YEAR: 1997
EXTT0=
EXTT1=
EXTT2=
EXTT3=
EXTT4=
EXTT5=
EXTT6=
EXTT7=
EXTT8=
EXTT9=
EXTT10=
EXTT11=
PLAYORDER=
